<svg xmlns="http://www.w3.org/2000/svg" width="22.523" height="22.523" viewBox="0 0 22.523 22.523"><path d="M8.257,21.018a2.252,2.252,0,1,0,2.252,2.252A2.249,2.249,0,0,0,8.257,21.018ZM1.5,3V5.252H3.752L7.806,13.8l-1.52,2.759A2.177,2.177,0,0,0,6,17.64a2.259,2.259,0,0,0,2.252,2.252H21.771V17.64H8.73a.279.279,0,0,1-.282-.282l.034-.135L9.5,15.388h8.39a2.242,2.242,0,0,0,1.971-1.16l4.032-7.309a1.1,1.1,0,0,0,.135-.541A1.129,1.129,0,0,0,22.9,5.252H6.241L5.182,3ZM19.518,21.018a2.252,2.252,0,1,0,2.252,2.252A2.249,2.249,0,0,0,19.518,21.018Z" transform="translate(-1.5 -3)" fill="#fff"/></svg>