<svg xmlns="http://www.w3.org/2000/svg" width="685" height="686" stroke="#000" stroke-linecap="round" stroke-linejoin="round" fill="#fff" fill-rule="evenodd">
    <path d="M401.3907 274.6563c0-69.8854-56.8542-126.7396-126.7344-126.7396-69.8855 0-126.7396 56.8542-126.7396 126.7396 0 69.8802 56.854 126.7344 126.7396 126.7344 69.8802 0 126.7344-56.8542 126.7344-126.7344zM274.6563 348.026c-40.4636 0-73.375-32.9115-73.375-73.3698 0-40.4635 32.9114-73.375 73.375-73.375 40.4583 0 73.3698 32.9115 73.3698 73.375 0 40.4583-32.9115 73.3698-73.3698 73.3698zm294.7292-13.9583l-179.276 184.3385c-10.2448 10.2917-18.0677 23.0052-22.6354 36.7813l-.4 1.2187-28.896 127.052 127.3906-28.5208 1.2605-.4167c13.849-4.5833 26.625-12.453 36.9426-22.7656l179.25-184.3125zM465.9323 594.1303c-1 .9843-2.052 1.9218-3.1458 2.802L425.1 559.2188c.9062-1.1198 1.8646-2.198 2.8854-3.2135l141.974-145.9896 38.0782 37.9948zm-191.276 20.354v69.35l-16.7708-13.547c-2.5938-2.0937-64.2344-52.1458-126.7553-123.922C44.8907 447.3542 1.1667 358.4792 1.1667 282.2136v-7.5573c0-150.802 122.6875-273.4896 273.4896-273.4896 150.797 0 273.4844 122.6875 273.4844 273.4896v5.9375l-65.7813 67.302c7.8542-22.2292 12.4167-44.328 12.4167-65.6823v-7.5573c0-121.3802-98.7448-220.125-220.1198-220.125-121.3802 0-220.125 98.7448-220.125 220.125v7.5573c0 128.8802 166.052 284.8906 220.125 332.2708zm0 0" stroke="none" fill-rule="nonzero" fill="#4d4d4d"/>
</svg>