<svg xmlns="http://www.w3.org/2000/svg" width="14.125" height="22.433" viewBox="0 0 14.125 22.433"><path d="M209.1,323.22v8.4a2.93,2.93,0,0,0,.7,2.109,3.031,3.031,0,0,0,3.944,0,2.926,2.926,0,0,0,.7-2.109v-8.4H217.1V331.6a5.535,5.535,0,0,1-.727,2.925,4.66,4.66,0,0,1-1.943,1.8,6.016,6.016,0,0,1-2.707.6,5.858,5.858,0,0,1-2.67-.6,4.5,4.5,0,0,1-1.9-1.8,5.705,5.705,0,0,1-.7-2.925V323.22Z" transform="translate(-204.671 -314.49)" fill="#fff"/><path d="M189.487,174.055a2.445,2.445,0,0,1-1.678,2.321v3.188H177.166v-3.15a2.444,2.444,0,1,1,2.654-3.746,3.6,3.6,0,0,1,5.27-.08,2.444,2.444,0,0,1,4.4,1.467Z" transform="translate(-175.364 -171.48)" fill="#fff"/></svg>