<svg xmlns="http://www.w3.org/2000/svg" width="152" height="45.266" viewBox="0 0 152 45.266"><path d="M211.792,323.22v16.949a5.913,5.913,0,0,0,1.409,4.256,6.117,6.117,0,0,0,7.958,0,5.905,5.905,0,0,0,1.408-4.256V323.22h5.369v16.9a11.168,11.168,0,0,1-1.466,5.9,9.4,9.4,0,0,1-3.922,3.628,12.142,12.142,0,0,1-5.462,1.216,11.823,11.823,0,0,1-5.388-1.215,9.091,9.091,0,0,1-3.831-3.628,11.512,11.512,0,0,1-1.408-5.9v-16.9Z" transform="translate(-202.85 -305.604)" fill="#fff"/><path d="M203.862,176.676a4.933,4.933,0,0,1-3.386,4.684v6.432H179v-6.357a4.932,4.932,0,1,1,5.355-7.559,7.264,7.264,0,0,1,10.635-.161,4.932,4.932,0,0,1,8.876,2.96Z" transform="translate(-175.364 -171.48)" fill="#fff"/><text transform="translate(39 33)" fill="#fff" font-size="29" font-family="Poppins-Regular, Poppins"><tspan x="0" y="0">UnCook</tspan></text></svg>