<svg xmlns="http://www.w3.org/2000/svg" width="25.693" height="22.523" viewBox="0 0 25.693 22.523"><path d="M26.357,8.836,24.25,25.347H17.136l-2.1-16.594h8.685L25.44,2.825l.973.293L24.766,8.824l1.59.012ZM14.032,18.389s.266-2.141-3.423-2.141H4.734c-3.684,0-3.423,2.141-3.423,2.141H14.032ZM1.311,23.206s-.261,2.141,3.423,2.141H10.61c3.689,0,3.423-2.141,3.423-2.141H1.311Zm12.17-1.071A1.231,1.231,0,0,0,14.572,20.8a1.23,1.23,0,0,0-1.091-1.339H1.812A1.232,1.232,0,0,0,.72,20.8a1.233,1.233,0,0,0,1.092,1.338H13.48Z" transform="translate(-0.72 -2.825)" fill="#fff"/></svg>