<svg xmlns="http://www.w3.org/2000/svg" width="21.821" height="22.433" viewBox="0 0 21.821 22.433"><path d="M22.652,15.316a8.741,8.741,0,0,0,.079-1.1,8.741,8.741,0,0,0-.079-1.1l2.367-1.851a.566.566,0,0,0,.135-.718L22.91,6.668a.564.564,0,0,0-.684-.247L19.433,7.543a8.2,8.2,0,0,0-1.9-1.1l-.426-2.972A.547.547,0,0,0,16.562,3H12.075a.547.547,0,0,0-.55.471L11.1,6.443a8.617,8.617,0,0,0-1.9,1.1L6.411,6.421a.547.547,0,0,0-.684.247L3.484,10.549a.553.553,0,0,0,.135.718l2.367,1.851a8.9,8.9,0,0,0-.079,1.1,8.9,8.9,0,0,0,.079,1.1L3.618,17.166a.566.566,0,0,0-.135.718l2.243,3.881a.564.564,0,0,0,.684.247L9.2,20.89a8.2,8.2,0,0,0,1.9,1.1l.426,2.972a.547.547,0,0,0,.55.471h4.487a.547.547,0,0,0,.55-.471l.426-2.972a8.617,8.617,0,0,0,1.9-1.1l2.793,1.122a.547.547,0,0,0,.684-.247l2.243-3.881a.566.566,0,0,0-.135-.718l-2.367-1.851Zm-8.334,2.827a3.926,3.926,0,1,1,3.926-3.926A3.93,3.93,0,0,1,14.319,18.142Z" transform="translate(-3.406 -3)" fill="#fff"/></svg>