<svg xmlns="http://www.w3.org/2000/svg" width="77.757" height="123.491" viewBox="0 0 77.757 123.491"><g transform="translate(-175.364 -171.48)"><path d="M221.006,323.22v46.24q0,7.6,3.845,11.611t10.8,4.013q7.059,0,10.908-4.013T250.4,369.46V323.22h14.648v46.116q0,9.523-4,16.1a25.653,25.653,0,0,1-10.7,9.9,33.123,33.123,0,0,1-14.9,3.316,32.252,32.252,0,0,1-14.7-3.316,24.8,24.8,0,0,1-10.451-9.9q-3.845-6.578-3.842-16.1V323.22Z" transform="translate(-21.248 -103.683)"/><path d="M253.109,185.656a13.457,13.457,0,0,1-9.237,12.78l0,17.548H185.282V198.641a13.454,13.454,0,1,1,14.61-20.621,19.817,19.817,0,0,1,29.014-.44,13.454,13.454,0,0,1,24.216,8.076Z" transform="translate(0 0)"/></g></svg>